Coordinates
version=1
nRows=9
nColumns=36
inDegrees=yes

Units are S.I. units (second, meters, Newtons, ...)
If the header above contains a line with 'inDegrees', this indicates whether rotational values are in degrees (yes) or radians (no).

endheader
time	pelvis_tilt	pelvis_list	pelvis_rotation	pelvis_tx	pelvis_ty	pelvis_tz	hip_flexion_r	hip_adduction_r	hip_rotation_r	knee_angle_r	knee_angle_r_beta	ankle_angle_r	subtalar_angle_r	mtp_angle_r	hip_flexion_l	hip_adduction_l	hip_rotation_l	knee_angle_l	knee_angle_l_beta	ankle_angle_l	subtalar_angle_l	mtp_angle_l	lumbar_extension	lumbar_bending	lumbar_rotation	arm_flex_r	arm_add_r	arm_rot_r	elbow_flex_r	pro_sup_r	arm_flex_l	arm_add_l	arm_rot_l	elbow_flex_l	pro_sup_l
      2.92916670	    -13.10809269	      3.24452697	      3.12075282	      0.26307595	      0.81480743	     -0.01347480	     53.58806732	     -9.51850936	      3.40225024	     75.98552806	      1.32619765	     30.88568484	    -10.08158016	     -7.49999987	     55.05887359	     -4.47198817	      5.64548572	     71.77278638	      1.25267144	     25.05374346	     -4.58838167	     -7.49999987	    -17.59073168	      2.10079031	     -0.53461270	     20.84971362	    -22.23330070	     16.07836936	     44.31633691	     74.71596808	    194.52746807	   -141.09363199	    202.60995465	     21.39036582	     43.52496731
      2.93333330	    -13.06682781	      3.18267617	      3.10048621	      0.26311641	      0.81473504	     -0.01412122	     53.49610385	     -9.23871351	      3.21870055	     75.98359868	      1.32616397	     31.00557645	     -9.89575038	     -7.49999987	     55.03061173	     -4.76502396	      5.61825612	     71.83961370	      1.25383779	     24.93103990	     -4.50128632	     -7.49999987	    -17.83142439	      1.78491382	     -0.65853086	     21.12594526	    -21.53136330	     14.90848512	     46.38045998	     77.13228497	    195.96977744	   -140.38552848	    206.22723521	     21.28465191	     39.99710895
      2.93750000	    -13.20798467	      3.06644658	      3.07814898	      0.25853141	      0.81431650	     -0.01788976	     53.79255619	     -9.10767669	      3.35748328	     75.96574638	      1.32585239	     30.96953277	     -9.71401415	     -7.49999987	     55.41889352	     -4.89451226	      5.55865075	     71.96047651	      1.25594725	     24.94973735	     -4.67687090	     -7.49999987	    -17.93842356	      1.80492855	     -0.99910743	     22.21532692	    -20.85469276	     14.88836291	     46.94220881	     77.14309263	    197.02980876	   -140.01469145	    206.16975018	     21.43603601	     39.96220029
      2.94166670	    -13.13418105	      3.20646295	      3.02603773	      0.26240952	      0.81455245	     -0.02310175	     53.63691760	     -9.46797302	      3.68171135	     75.85726584	      1.32395905	     31.07682725	     -9.11338579	     -7.49999987	     55.21408710	     -4.59449459	      5.40046536	     71.82727993	      1.25362253	     24.77785929	     -5.37097866	     -7.49999987	    -18.04061904	      1.80428113	     -1.74549265	     22.77293014	    -20.43527805	     14.97968510	     48.32887905	     77.27146256	    197.23362110	   -139.90806375	    206.71576998	     21.60084403	     39.79119029
      2.94583330	    -13.20431076	      3.29027829	      2.81404195	      0.26211098	      0.81470472	     -0.02238390	     53.75267746	     -9.61260089	      3.87722518	     75.76403153	      1.32233180	     31.05706195	     -8.76611593	     -7.49999987	     55.17142935	     -4.45664426	      5.20821232	     71.79993293	      1.25314523	     24.69632532	     -5.81736938	     -7.49999987	    -18.05435335	      1.99626803	     -1.98090606	     23.11826774	    -20.45434274	     15.17922882	     49.31021294	     77.34711058	    197.76023077	   -140.34060455	    207.25505999	     22.25278167	     39.76263497
      2.95000000	    -13.25125041	      3.20670914	      2.79087667	      0.26225404	      0.81498735	     -0.01352745	     53.88785169	     -9.26598578	      3.72587616	     75.92785750	      1.32519111	     31.10931300	     -8.74821734	     -7.49999987	     55.07092311	     -4.71912413	      5.52950321	     71.39271664	      1.24603797	     24.54272006	     -5.80391982	     -7.49999987	    -17.92604699	      1.91653348	     -2.14627075	     23.31533849	    -19.85213365	     15.27430254	     49.60829619	     77.37833837	    198.29883351	   -140.41491860	    207.37723609	     22.61340260	     39.74943946
      2.95416670	    -13.34373071	      3.20402519	      2.67396145	      0.26177078	      0.81525038	     -0.01294069	     54.03400830	     -8.94003856	      3.57925946	     76.09205190	      1.32805684	     31.12951045	     -8.91408655	     -7.49999987	     55.08073645	     -4.84639184	      5.75469392	     71.18232708	      1.24236598	     24.22453920	     -6.02966278	     -7.49999987	    -17.94521654	      1.70444982	     -1.14634290	     22.15041316	    -19.74141151	     12.97626921	     51.83380782	     79.63953958	    200.50280440	   -139.87796079	    215.65130204	     23.75646826	     34.78493731
      2.95833330	    -13.38434044	      3.13556992	      2.46800587	      0.26196873	      0.81542671	     -0.01339647	     54.24365413	     -8.68784582	      3.51080609	     76.36697125	      1.33285509	     30.82560027	     -9.13801751	     -7.49999987	     55.01556585	     -5.11988242	      5.85726466	     70.95926563	      1.23847282	     24.10240971	     -6.26436424	     -7.49999987	    -17.78341169	      1.54708862	     -1.35322298	     22.75148238	    -19.43035326	     13.87932858	     52.25049102	     77.83085081	    199.75306949	   -139.66667088	    212.87731320	     24.92652778	     36.98003990
      2.96250000	    -13.78572339	      3.19056881	      2.30978966	      0.26179340	      0.81529263	     -0.01285789	     54.53226288	     -8.69887279	      3.33801281	     76.08841725	      1.32799340	     30.63675503	     -9.50164683	     -7.49999987	     55.23845786	     -5.25440675	      5.74433181	     70.60784444	      1.23233936	     23.90048832	     -6.62335951	     -7.49999987	    -17.12410368	      1.30627512	     -1.49958390	     23.12287941	    -19.34614873	     15.05101046	     53.93045479	     77.57305218	    199.40542253	   -139.22877738	    212.44141029	     25.87760466	     37.58242582
